<?xml version="1.0" standalone="no"?>
<!DOCTYPE svg PUBLIC "-//W3C//DTD SVG 20010904//EN"
 "http://www.w3.org/TR/2001/REC-SVG-20010904/DTD/svg10.dtd">
<svg version="1.0" xmlns="http://www.w3.org/2000/svg"
 width="433.000000pt" height="577.000000pt" viewBox="0 0 433.000000 577.000000"
 preserveAspectRatio="xMidYMid meet">

<g transform="translate(0.000000,577.000000) scale(0.100000,-0.100000)"
fill="#000000" stroke="none">
<path d="M3065 4574 c-206 -27 -252 -62 -326 -245 -38 -96 -32 -96 -189 -23
-86 40 -115 49 -161 49 -69 0 -116 -32 -150 -102 -21 -43 -24 -65 -27 -196 -3
-127 -1 -151 13 -174 17 -26 17 -27 -9 -49 -14 -13 -59 -42 -99 -65 -105 -61
-172 -115 -268 -217 -210 -220 -351 -427 -440 -645 -39 -98 -68 -137 -100
-137 -45 0 -112 -29 -149 -64 -19 -18 -52 -45 -72 -61 -51 -37 -77 -82 -89
-153 l-11 -59 -106 -7 c-59 -4 -159 -14 -222 -22 -63 -9 -161 -19 -218 -23
-117 -9 -122 -12 -198 -117 -62 -87 -114 -195 -126 -265 -10 -50 -15 -59 -33
-59 -29 0 -51 -27 -59 -70 -3 -19 -9 -51 -13 -70 -3 -19 -7 -72 -7 -117 -1
-98 14 -125 88 -161 96 -47 238 -67 1126 -161 644 -69 752 -72 1295 -36 393
26 514 46 825 130 181 50 419 109 465 117 16 2 22 -6 32 -45 13 -54 28 -76 57
-87 14 -5 20 -16 20 -41 1 -31 4 -34 30 -34 24 0 31 6 40 33 6 18 23 38 36 45
38 19 37 59 -1 118 -17 27 -30 51 -28 53 2 1 47 13 99 25 52 12 123 35 156 52
86 41 89 50 81 262 -6 161 -16 224 -40 255 -5 7 -11 54 -13 105 -2 60 -18 160
-45 287 l-42 195 -1 260 c-2 200 -6 287 -21 375 -21 132 -21 120 -11 310 l8
145 -32 60 c-41 78 -110 251 -110 279 -1 71 -100 180 -219 239 -93 47 -137 53
-207 31 -59 -18 -54 -19 -174 24 -129 46 -265 68 -355 56z m205 -19 c0 -2 -17
-31 -37 -62 -62 -96 -103 -201 -103 -262 l0 -53 -37 6 c-84 14 -193 17 -283 8
-52 -5 -97 -7 -100 -5 -2 2 5 20 15 39 11 20 21 31 23 25 8 -23 56 -9 138 40
47 28 87 49 89 47 3 -2 -7 -21 -21 -42 -14 -21 -23 -40 -19 -44 3 -4 10 -1 14
6 4 7 15 10 24 7 12 -5 18 3 26 32 6 21 11 44 11 50 0 7 21 24 48 38 26 15 39
24 29 21 -51 -16 -65 -17 -72 -5 -5 7 -1 15 8 21 9 5 14 15 10 24 -4 10 2 17
16 21 27 7 28 23 1 23 -13 0 -29 -17 -50 -52 -20 -37 -30 -46 -30 -32 0 11 9
29 20 39 23 21 28 44 5 25 -10 -9 -15 -9 -15 -1 0 26 -18 8 -43 -44 -32 -65
-34 -79 -7 -46 15 18 20 19 20 7 0 -9 6 -16 13 -16 19 -1 -123 -60 -144 -60
-19 0 -23 8 -20 45 2 17 0 17 -8 5 -18 -25 -12 -1 9 40 24 47 74 106 104 122
44 24 125 36 244 37 67 1 122 -1 122 -4z m190 -75 c58 -30 38 -36 -36 -12 -33
11 -75 22 -94 26 -23 3 -18 0 15 -10 76 -23 137 -46 132 -50 -2 -2 -28 5 -59
16 -31 11 -74 22 -97 26 -22 4 -38 10 -35 15 3 5 -2 12 -11 15 -11 5 -13 10
-5 19 13 16 121 -10 190 -45z m-183 14 c-3 -3 -12 -4 -19 -1 -8 3 -5 6 6 6 11
1 17 -2 13 -5z m63 -35 c48 -11 96 -26 105 -33 16 -12 16 -15 -9 -54 -14 -23
-50 -88 -79 -144 l-53 -103 -34 12 c-19 7 -45 12 -58 12 -36 1 -72 44 -72 86
0 56 82 245 106 245 4 0 46 -9 94 -21z m-272 -285 c123 -29 214 -59 218 -71 2
-7 7 -21 11 -30 3 -10 5 -24 4 -30 -1 -7 3 -13 8 -13 11 0 -5 -56 -22 -77 -15
-20 -43 -16 -182 27 -166 51 -306 80 -389 80 -39 0 -66 4 -66 10 0 22 40 88
57 96 10 4 70 11 133 14 63 4 125 7 138 8 13 1 53 -5 90 -14z m-193 -251 c33
-8 100 -33 149 -55 77 -35 99 -41 157 -41 67 0 68 -1 79 -30 15 -43 12 -72 -7
-95 -16 -18 -31 -21 -108 -23 -124 -2 -321 16 -373 35 -56 20 -116 64 -137 98
-15 25 -15 29 1 53 16 25 16 27 -6 50 l-22 24 43 4 c62 6 154 -2 224 -20z
m-608 -328 c-3 -6 -21 -16 -41 -22 -35 -11 -37 -10 -30 10 4 12 18 45 32 72
l26 50 8 -49 c5 -27 7 -54 5 -61z m-135 -2 c-2 -51 -9 -90 -21 -113 -10 -19
-22 -45 -26 -58 -3 -12 -29 -45 -55 -71 -27 -27 -52 -60 -56 -73 -3 -12 -33
-43 -67 -68 -33 -25 -75 -66 -91 -92 -17 -26 -38 -47 -47 -47 -8 -1 -38 -8
-67 -16 -41 -12 -66 -31 -128 -93 l-78 -77 28 50 c14 28 72 106 128 175 55 69
121 154 146 190 76 108 155 213 181 242 27 29 142 126 151 127 3 1 4 -34 2
-76z m556 -3 c9 0 10 -5 2 -19 -5 -11 -10 -36 -10 -56 l0 -36 -57 6 c-118 13
-124 20 -76 105 l27 47 50 -23 c28 -13 57 -24 64 -24z m305 -7 c3 -5 -34 -7
-81 -5 -135 4 -148 9 -30 11 59 0 109 -2 111 -6z m-64 -112 c31 -20 -1 -30
-80 -26 -82 4 -103 10 -94 26 8 11 155 12 174 0z m961 -317 c62 -48 132 -83
170 -85 14 0 19 -3 11 -6 -8 -3 -10 -8 -3 -12 6 -3 -7 -7 -30 -7 -22 -1 -35 2
-28 6 16 10 -15 21 -37 13 -10 -4 -14 -2 -10 4 5 9 -61 63 -77 63 -12 0 3 -34
19 -42 13 -8 16 -8 10 2 -5 8 -3 11 6 8 8 -3 13 -10 12 -17 -4 -17 72 -51 117
-51 37 0 40 -2 40 -28 0 -26 -9 -34 -82 -75 l-82 -46 -40 32 c-23 18 -57 43
-76 56 l-35 22 35 -28 c19 -15 50 -42 69 -59 l33 -30 -113 -56 c-185 -91 -287
-130 -319 -123 -37 8 -85 63 -100 112 -7 21 -14 89 -17 151 -6 128 -10 132
-79 86 -144 -96 -225 -249 -226 -426 -1 -75 2 -94 26 -142 22 -45 38 -63 79
-87 51 -29 55 -30 162 -26 150 5 248 41 424 157 50 33 93 60 95 60 2 0 -3 -26
-10 -57 -8 -32 -19 -121 -24 -198 -12 -170 -20 -238 -29 -254 -6 -9 -524 -171
-547 -171 -2 0 -13 19 -25 43 -35 69 -121 178 -244 308 -64 67 -136 149 -161
183 -58 76 -116 191 -112 219 2 12 23 36 48 54 91 67 132 107 212 206 162 201
244 258 393 275 53 6 87 6 100 -1 18 -9 19 -9 6 6 -12 15 -11 17 2 17 22 0 84
56 103 91 8 16 20 29 27 29 9 0 9 -2 0 -8 -8 -5 1 -15 24 -30 19 -13 32 -19
29 -14 -3 6 -2 12 4 14 6 2 1 9 -11 16 -15 9 -19 10 -14 1 5 -7 3 -10 -4 -8
-7 3 -11 7 -9 11 2 3 -5 15 -15 25 -9 11 -14 22 -11 25 6 7 221 -136 314 -208z
m-1287 154 c54 -19 75 -34 65 -43 -2 -3 -47 7 -99 21 -136 38 -126 33 -109 45
19 12 68 4 143 -23z m-217 -186 c38 -10 89 -28 114 -39 l45 -20 -34 -31 c-48
-46 -93 -44 -166 7 -31 22 -70 43 -86 46 -35 8 -37 17 -6 38 29 21 50 21 133
-1z m-147 -268 c14 -12 -19 -1 -35 12 -18 14 -18 14 6 3 14 -6 27 -13 29 -15z
m-394 -88 c44 -8 115 -22 159 -32 67 -15 76 -19 61 -30 -13 -10 -23 -9 -52 2
-19 8 -87 19 -151 25 -132 11 -206 28 -176 40 29 12 72 10 159 -5z m2134 -108
c-5 -18 -9 -69 -9 -114 0 -77 -3 -87 -49 -185 -47 -99 -101 -246 -101 -275 0
-8 -6 -14 -14 -14 -11 0 -12 8 -5 38 4 20 11 93 15 162 5 103 35 315 46 325 8
8 122 95 124 95 1 0 -2 -15 -7 -32z m-2261 -26 c76 -29 138 -76 145 -110 8
-42 73 -101 169 -154 45 -26 97 -60 113 -77 17 -16 59 -41 94 -55 108 -43 199
-112 177 -133 -11 -11 -90 18 -196 72 -150 76 -189 85 -350 85 -189 0 -516 17
-769 40 -118 11 -221 20 -229 20 -7 0 -10 5 -6 11 4 8 -1 9 -16 4 -12 -4 -77
1 -144 11 -137 21 -128 26 59 38 114 7 375 43 384 52 3 4 -20 4 -52 1 -69 -7
-67 3 11 42 104 52 237 100 373 136 156 40 173 41 237 17z m2550 -454 c21 -21
13 -45 -20 -58 -18 -7 -46 -19 -63 -26 -81 -33 -206 -76 -211 -72 -3 3 -1 20
3 38 8 31 15 35 103 64 52 18 109 40 125 49 36 20 47 21 63 5z m31 -62 c-2 -2
-15 -7 -29 -10 l-25 -7 25 15 c21 12 42 14 29 2z m-82 -32 c-16 -9 -31 -13
-34 -10 -3 3 5 10 18 15 37 15 47 12 16 -5z m91 -135 l5 -118 -36 -15 c-45
-18 -299 -96 -315 -96 -14 0 -15 52 -6 176 l7 81 66 22 c36 12 84 30 106 41
36 17 37 19 10 14 -23 -4 -27 -3 -15 5 8 6 27 9 41 6 14 -3 44 3 69 14 41 18
46 19 54 4 5 -9 11 -69 14 -134z m-504 59 c-7 -43 -32 -56 -234 -119 -74 -23
-137 -45 -140 -48 -3 -3 -14 -7 -26 -8 -11 -1 -34 -7 -50 -14 -16 -6 -36 -13
-44 -14 -8 -1 -49 -12 -90 -25 -212 -63 -478 -91 -870 -91 -301 0 -463 9 -785
42 -110 12 -213 23 -230 25 -16 2 -50 6 -75 9 -25 3 -117 14 -205 25 -88 10
-200 21 -250 25 -49 3 -115 7 -145 10 -116 9 -429 23 -578 25 -20 0 -23 4 -20
33 3 32 3 32 68 38 75 7 443 -6 575 -20 50 -5 232 -25 405 -45 173 -19 398
-42 500 -51 265 -23 772 -38 1005 -31 279 8 383 31 1060 234 72 21 131 38 132
37 1 0 0 -17 -3 -37z m276 22 c-8 -5 -22 -10 -30 -10 -13 0 -13 1 0 10 8 5 22
10 30 10 13 0 13 -1 0 -10z m-73 -26 c-16 -9 -31 -13 -34 -10 -3 3 5 10 18 15
37 15 47 12 16 -5z m-231 -69 c-19 -15 -46 -20 -46 -10 0 6 40 24 55 24 6 0 1
-6 -9 -14z m-66 -20 c0 -4 -67 -35 -76 -35 -2 0 -4 4 -4 9 0 4 15 13 33 19 39
12 47 13 47 7z m80 -69 c0 -40 3 -94 6 -118 l6 -46 -228 -55 c-429 -105 -635
-140 -917 -157 -303 -18 -500 5 -1329 155 -221 40 -537 86 -803 116 -184 20
-295 21 -447 3 -45 -5 -46 -5 -41 18 13 51 11 51 243 43 353 -11 634 -32 935
-71 149 -20 461 -54 545 -60 242 -16 308 -19 575 -19 308 0 456 8 630 34 39 6
88 13 109 17 22 3 47 9 57 14 9 5 19 7 21 4 3 -2 25 2 49 9 24 8 78 24 119 37
197 59 383 121 398 133 6 5 12 7 12 4 0 -4 10 -2 23 3 12 5 25 9 30 9 4 1 7
-32 7 -73z m-180 36 c0 -5 -16 -13 -35 -19 -19 -6 -35 -8 -35 -4 0 5 15 13 33
19 17 5 33 10 35 11 1 1 2 -3 2 -7z m-100 -31 c0 -5 -14 -14 -31 -20 -38 -13
-39 -13 -39 -2 0 4 15 13 33 19 17 5 33 10 35 11 1 1 2 -3 2 -8z m-3400 -21
c0 -5 -18 -10 -40 -10 -22 0 -40 5 -40 10 0 6 18 10 40 10 22 0 40 -4 40 -10z
m95 0 c4 -6 -10 -10 -35 -10 -25 0 -39 4 -35 10 3 6 19 10 35 10 16 0 32 -4
35 -10z m88 -7 c-13 -2 -33 -2 -45 0 -13 2 -3 4 22 4 25 0 35 -2 23 -4z m117
-3 c0 -12 -37 -12 -65 0 -15 7 -10 9 23 9 23 1 42 -3 42 -9z m90 0 c11 -7 3
-10 -28 -10 -26 0 -41 4 -37 10 8 13 45 13 65 0z m110 -10 c0 -12 -24 -12 -60
0 -21 7 -19 8 18 9 23 1 42 -3 42 -9z m99 -6 c2 -2 -12 -4 -32 -4 -20 0 -37 4
-37 10 0 8 58 3 69 -6z m2711 11 c0 -6 -73 -25 -78 -20 -3 3 6 9 19 14 26 10
59 14 59 6z m-2615 -15 c15 -7 10 -9 -22 -9 -24 -1 -43 4 -43 9 0 12 37 12 65
0z m105 -10 c11 -7 4 -10 -27 -10 -24 0 -43 5 -43 10 0 13 50 13 70 0z m105
-10 c4 -6 -10 -10 -34 -10 -23 0 -41 5 -41 10 0 6 15 10 34 10 19 0 38 -4 41
-10z m2303 5 c-11 -11 -68 -23 -68 -15 0 5 8 11 18 13 25 7 56 8 50 2z m-2208
-15 c11 -7 4 -10 -27 -10 -24 0 -43 5 -43 10 0 13 50 13 70 0z m95 -10 c15 -7
10 -9 -22 -9 -24 -1 -43 4 -43 9 0 12 37 12 65 0z m2015 1 c0 -11 -59 -26 -67
-18 -3 3 10 10 28 16 19 5 35 10 37 10 1 1 2 -3 2 -8z m-1911 -17 c9 -9 -6
-11 -36 -7 -18 3 -33 10 -33 15 0 9 58 2 69 -8z m106 -14 c7 -12 -32 -12 -60
0 -16 7 -13 9 17 9 20 1 40 -3 43 -9z m1705 0 c-8 -5 -28 -9 -45 -9 -26 0 -27
2 -10 9 11 5 31 9 45 9 20 1 22 -1 10 -9z m-1610 -10 c11 -7 6 -10 -22 -10
-20 0 -40 5 -43 10 -8 13 45 13 65 0z m100 -10 c11 -7 4 -10 -27 -10 -24 0
-43 5 -43 10 0 13 50 13 70 0z m1405 0 c-11 -5 -31 -9 -45 -9 -20 -1 -22 1
-10 9 8 5 29 9 45 9 26 0 27 -2 10 -9z m-1300 -10 c4 -6 -10 -10 -34 -10 -23
0 -41 5 -41 10 0 6 15 10 34 10 19 0 38 -4 41 -10z m1210 0 c-3 -5 -23 -10
-43 -9 -33 1 -34 2 -12 9 36 12 62 12 55 0z m-1105 -10 c0 -12 -24 -12 -60 0
-21 7 -19 8 18 9 23 1 42 -3 42 -9z m1005 0 c4 -6 -10 -10 -37 -9 -40 1 -41 2
-13 9 43 11 43 11 50 0z m-922 -7 c-13 -2 -33 -2 -45 0 -13 2 -3 4 22 4 25 0
35 -2 23 -4z m107 -3 c11 -7 4 -10 -27 -10 -24 0 -43 5 -43 10 0 13 50 13 70
0z m715 0 c-3 -5 -23 -10 -43 -10 -28 0 -33 3 -22 10 20 13 73 13 65 0z m-622
-7 c-13 -2 -33 -2 -45 0 -13 2 -3 4 22 4 25 0 35 -2 23 -4z m117 -3 c0 -5 -15
-10 -34 -10 -19 0 -38 5 -41 10 -4 6 10 10 34 10 23 0 41 -4 41 -10z m100 0
c0 -5 -16 -10 -35 -10 -19 0 -35 5 -35 10 0 6 16 10 35 10 19 0 35 -4 35 -10z
m100 0 c0 -5 -16 -10 -35 -10 -19 0 -35 5 -35 10 0 6 16 10 35 10 19 0 35 -4
35 -10z m100 0 c0 -5 -16 -10 -35 -10 -19 0 -35 5 -35 10 0 6 16 10 35 10 19
0 35 -4 35 -10z m110 6 c0 -2 -18 -6 -40 -8 -22 -2 -40 0 -40 4 0 5 18 8 40 8
22 0 40 -2 40 -4z"/>
<path d="M2933 4468 c-12 -15 -53 -94 -53 -103 0 -20 20 4 43 51 27 54 31 79
10 52z"/>
<path d="M2863 4458 c-21 -26 -54 -100 -50 -111 2 -7 10 1 18 17 l14 29 6 -24
c5 -21 9 -17 37 39 18 34 28 62 22 62 -6 0 -14 -8 -17 -17 -6 -15 -7 -15 -13
1 -5 15 -8 15 -17 4z"/>
<path d="M3036 4341 c-26 -49 -36 -81 -27 -81 10 0 55 100 47 107 -2 3 -12 -9
-20 -26z"/>
<path d="M3071 4353 c-5 -10 -16 -35 -24 -55 -17 -40 -7 -53 11 -15 l11 22 1
-25 c0 -21 4 -17 25 23 14 27 23 53 19 58 -9 15 -33 10 -43 -8z m29 -13 c0 -5
-5 -10 -11 -10 -5 0 -7 5 -4 10 3 6 8 10 11 10 2 0 4 -4 4 -10z"/>
<path d="M3655 3271 c-3 -6 15 -23 39 -40 33 -23 44 -27 42 -14 -4 25 -70 70
-81 54z m60 -36 l20 -16 -20 10 c-11 5 -29 17 -40 26 l-20 16 20 -10 c11 -5
29 -17 40 -26z"/>
<path d="M3754 3203 c2 -10 11 -18 22 -18 10 0 19 -6 19 -12 0 -11 65 -63 79
-63 12 0 -3 33 -19 42 -13 8 -16 8 -10 -2 5 -8 3 -11 -6 -8 -8 3 -13 10 -12
16 2 6 -10 19 -25 30 -46 32 -50 33 -48 15z"/>
<path d="M3470 3176 c0 -2 7 -7 16 -10 8 -3 12 -2 9 4 -6 10 -25 14 -25 6z"/>
<path d="M3510 3156 c0 -3 9 -10 20 -16 11 -6 20 -8 20 -6 0 3 -9 10 -20 16
-11 6 -20 8 -20 6z"/>
<path d="M3560 3126 c0 -3 9 -10 20 -16 11 -6 20 -8 20 -6 0 3 -9 10 -20 16
-11 6 -20 8 -20 6z"/>
<path d="M3613 3092 c4 -5 24 -20 44 -32 20 -12 32 -16 26 -8 -15 17 -78 54
-70 40z"/>
<path d="M3700 3036 c0 -3 9 -10 20 -16 11 -6 20 -8 20 -6 0 3 -9 10 -20 16
-11 6 -20 8 -20 6z"/>
</g>
</svg>
